<?xml version="1.0" encoding="UTF-8" standalone="no"?> <svg  viewBox="0 -27 512 512"  xmlns="http://www.w3.org/2000/svg"><path d="m216 284c2.628906 0 5.210938-1.070312 7.070312-2.929688 1.859376-1.859374 2.929688-4.441406 2.929688-7.070312s-1.070312-5.210938-2.929688-7.070312c-1.859374-1.859376-4.441406-2.929688-7.070312-2.929688s-5.210938 1.070312-7.070312 2.929688c-1.859376 1.859374-2.929688 4.441406-2.929688 7.070312s1.070312 5.210938 2.929688 7.070312c1.859374 1.859376 4.441406 2.929688 7.070312 2.929688zm0 0"/><path d="m468.820312 126h-10.820312v-84c0-23.160156-18.839844-42-42-42h-374c-23.160156 0-42 18.839844-42 42v248c0 23.160156 18.839844 42 42 42h136.949219l-6.773438 54.964844c-29.042969 5.136718-51.179687 30.542968-51.179687 61.035156 0 5.523438 4.480468 10 10 10h337.824218c23.808594 0 43.179688-19.367188 43.179688-43.179688v-245.640624c0-23.8125-19.371094-43.179688-43.179688-43.179688zm-6.820312 188.5c-5.523438 0-10 4.476562-10 10v57.5h-114.058594v-70.800781l32.058594-32.058594 42.042969 42.042969c1.953125 1.953125 4.511719 2.929687 7.070312 2.929687 2.558594 0 5.121094-.976562 7.070313-2.929687 3.90625-3.902344 3.90625-10.234375 0-14.140625l-66.183594-66.1875v-40.714844l30.09375 30.097656c1.953125 1.949219 4.511719 2.925781 7.070312 2.925781 2.5625 0 5.121094-.976562 7.074219-2.925781 3.902344-3.90625 3.902344-10.238281 0-14.144531l-30.097656-30.09375h117.859375v196h-20v-57.5c0-5.523438-4.476562-10-10-10zm-195.777344-148.5c1.554688-11.28125 11.253906-20 22.957032-20h50.820312v20zm-.222656 216v-196h74v59c0 2.652344 1.054688 5.195312 2.929688 7.070312l12.929687 12.929688-34.988281 34.988281c-1.875 1.875-2.929688 4.417969-2.929688 7.070313v74.941406zm225.777344-216h-131.777344v-20h108.820312c11.703126 0 21.402344 8.71875 22.957032 20zm-53.777344-124v84h-28v-68c0-5.523438-4.476562-10-10-10h-245.828125l6.714844-28h255.113281c12.132812 0 22 9.867188 22 22zm-418 248v-248c0-12.132812 9.867188-22 22-22h98.316406l-6.710937 28h-75.605469c-5.523438 0-10 4.476562-10 10v216c0 5.523438 4.476562 10 10 10h118c5.523438 0 10-4.476562 10-10s-4.476562-10-10-10h-108v-196h60.808594l-14.867188 62c-.617187 2.582031-.183594 5.304688 1.207032 7.566406 1.390624 2.261719 3.621093 3.878906 6.207031 4.496094l49.785156 11.835938v66.433593c0 5.523438 4.476563 10 10 10s10-4.476562 10-10v-74.332031c0-4.632812-3.179687-8.65625-7.6875-9.730469l-47.726563-11.347656 11.324219-47.222656 30.875 30.875c1.953125 1.953125 4.511719 2.929687 7.070313 2.929687s5.117187-.976562 7.070312-2.929687c3.90625-3.902344 3.90625-10.234375 0-14.140625l-26.433594-26.433594h224.367188v58h-100.820312c-23.808594 0-43.179688 19.367188-43.179688 43.179688v142.820312h-204c-12.132812 0-22-9.867188-22-22zm226 42v54h-53.554688l6.65625-54zm-63 74h63v8.820312c0 8.527344 2.492188 16.476563 6.777344 23.179688h-110.578125c4.5-18.347656 21.085937-32 40.800781-32zm285.820312 32h-179.640624c-12.78125 0-23.179688-10.398438-23.179688-23.179688v-12.820312h226v12.820312c0 12.78125-10.398438 23.179688-23.179688 23.179688zm0 0"/><path d="m379 412c-2.628906 0-5.210938 1.070312-7.070312 2.929688-1.859376 1.859374-2.929688 4.441406-2.929688 7.070312s1.070312 5.210938 2.929688 7.070312c1.859374 1.859376 4.441406 2.929688 7.070312 2.929688s5.210938-1.070312 7.070312-2.929688c1.859376-1.859374 2.929688-4.441406 2.929688-7.070312s-1.070312-5.210938-2.929688-7.070312c-1.859374-1.859376-4.441406-2.929688-7.070312-2.929688zm0 0"/><path d="m469.070312 278.488281c-1.859374-1.867187-4.441406-2.929687-7.070312-2.929687s-5.210938 1.0625-7.070312 2.929687c-1.859376 1.859375-2.929688 4.441407-2.929688 7.070313s1.070312 5.210937 2.929688 7.070312c1.859374 1.859375 4.441406 2.929688 7.070312 2.929688s5.210938-1.070313 7.070312-2.929688c1.859376-1.859375 2.929688-4.441406 2.929688-7.070312 0-2.636719-1.070312-5.207032-2.929688-7.070313zm0 0"/></svg>